<?xml version="1.0" encoding="UTF-8"?>
<!DOCTYPE svg PUBLIC "-//W3C//DTD SVG 1.1//EN" "http://www.w3.org/Graphics/SVG/1.1/DTD/svg11.dtd">
<svg xmlns="http://www.w3.org/2000/svg" version="1.1" width="799px" height="799px" style="shape-rendering:geometricPrecision; text-rendering:geometricPrecision; image-rendering:optimizeQuality; fill-rule:evenodd; clip-rule:evenodd" xmlns:xlink="http://www.w3.org/1999/xlink">
<g><path style="opacity:0.982" fill="#cc0000" d="M 369.5,113.5 C 372.5,113.5 375.5,113.5 378.5,113.5C 377.343,162.878 375.509,212.211 373,261.5C 345.667,289.5 318.333,317.5 291,345.5C 295.768,293.157 300.934,240.824 306.5,188.5C 286.572,189.635 266.739,191.302 247,193.5C 219.167,268.333 191.333,343.167 163.5,418C 139.785,435.279 115.952,452.446 92,469.5C 91.1687,476.856 91.3354,484.189 92.5,491.5C 183.527,432.992 283.193,406.825 391.5,413C 494.403,429.635 571.903,482.802 624,572.5C 637.21,596.303 647.376,621.303 654.5,647.5C 642.162,647.667 629.829,647.5 617.5,647C 575.816,539.689 497.483,480.356 382.5,469C 324.221,465.322 269.221,476.989 217.5,504C 223.172,506.503 228.838,509.003 234.5,511.5C 315.01,478.073 395.344,478.573 475.5,513C 535.696,542.024 578.029,587.524 602.5,649.5C 596.463,649.829 590.463,649.496 584.5,648.5C 543.787,564.944 477.121,517.444 384.5,506C 336.243,501.918 290.576,510.918 247.5,533C 243.5,533.667 239.5,533.667 235.5,533C 215.989,522.744 196.323,512.744 176.5,503C 173.833,502.333 171.167,502.333 168.5,503C 125.728,532.938 89.0617,569.105 58.5,611.5C 56.8333,611.833 55.1667,612.167 53.5,612.5C 44.1747,611.576 34.8414,610.743 25.5,610C 24.5838,609.626 23.7504,609.126 23,608.5C 17.0869,553.449 10.9202,498.449 4.5,443.5C 36.8973,420.281 69.7307,397.614 103,375.5C 133.129,292.948 162.962,210.281 192.5,127.5C 251.633,122.682 310.633,118.015 369.5,113.5 Z"/></g>
<g><path style="opacity:0.982" fill="#cc0000" d="M 484.5,205.5 C 545.396,221.301 606.063,237.801 666.5,255C 638.631,293.904 611.131,333.071 584,372.5C 582.54,374.466 580.873,376.132 579,377.5C 560.863,368.522 543.363,358.689 526.5,348C 539.203,328.098 552.036,308.265 565,288.5C 565.456,287.256 564.956,286.423 563.5,286C 543.119,280.988 522.785,275.821 502.5,270.5C 477.5,291.667 452.5,312.833 427.5,334C 554.247,374.083 644.414,454.916 698,576.5C 707.49,599.135 714.656,622.468 719.5,646.5C 704.167,646.5 688.833,646.5 673.5,646.5C 644.936,541.112 581.603,464.612 483.5,417C 422.615,390.13 358.948,379.13 292.5,384C 356.697,324.634 420.697,265.134 484.5,205.5 Z"/></g>
<g><path style="opacity:0.979" fill="#cc0000" d="M 723.5,376.5 C 725.924,376.192 728.257,376.526 730.5,377.5C 750.541,405.087 770.208,432.921 789.5,461C 780.056,474.276 770.056,487.109 759.5,499.5C 747.376,481.419 735.376,463.252 723.5,445C 715.787,444.856 708.121,445.523 700.5,447C 741.995,507.838 772.329,574.005 791.5,645.5C 774.833,645.5 758.167,645.5 741.5,645.5C 723.724,573.617 691.89,508.951 646,451.5C 631.054,434.051 615.554,417.051 599.5,400.5C 640.951,392.483 682.285,384.483 723.5,376.5 Z"/></g>
<g><path style="opacity:0.012" fill="#701204" d="M 736.5,675.5 C 736.897,674.475 737.563,674.308 738.5,675C 737.906,675.464 737.239,675.631 736.5,675.5 Z"/></g>
<g><path style="opacity:0.09" fill="#c30000" d="M 586.5,679.5 C 587.946,678.387 589.613,678.22 591.5,679C 589.866,679.494 588.199,679.66 586.5,679.5 Z"/></g>
<g><path style="opacity:0.176" fill="#c60000" d="M 320.5,710.5 C 323.976,709.357 327.642,709.19 331.5,710C 327.848,710.499 324.182,710.665 320.5,710.5 Z"/></g>
</svg>
